<?xml version="1.0" encoding="utf-8"?>
<!-- Generator: Adobe Illustrator 16.0.0, SVG Export Plug-In . SVG Version: 6.00 Build 0)  -->
<!DOCTYPE svg PUBLIC "-//W3C//DTD SVG 1.1//EN" "http://www.w3.org/Graphics/SVG/1.1/DTD/svg11.dtd">
<svg version="1.1" id="Capa_1" xmlns="http://www.w3.org/2000/svg" xmlns:xlink="http://www.w3.org/1999/xlink" x="0px" y="0px"
	 width="26.458px" height="33.042px" viewBox="0 0 26.458 33.042" enable-background="new 0 0 26.458 33.042" xml:space="preserve">
<g>
	<path fill="#8CA66A" d="M13.234,0.612c-6.706,0-12.318,5.701-12.318,12.511c0,4.119,2.184,6.812,4.991,9.982
		c2.494,2.848,5.146,4.658,7.327,9.568c2.343-4.91,4.995-6.721,7.486-9.568c2.653-3.171,4.993-5.863,4.993-9.982
		C25.713,6.312,20.102,0.612,13.234,0.612L13.234,0.612z"/>
	<path fill="#FFFFFF" d="M13.243,2.082c-5.944,0-10.919,4.991-10.919,10.951c0,3.604,1.936,5.962,4.424,8.736
		c2.211,2.49,4.561,4.076,6.496,8.375c2.075-4.299,4.428-5.885,6.637-8.375c2.353-2.775,4.425-5.132,4.425-8.736
		c0-5.961-4.974-10.951-11.059-10.951H13.243L13.243,2.082z"/>
</g>
<g>
	<path fill="#10611D" d="M20.45,9.122c-0.131-0.07-0.286-0.07-0.412,0l-3.01,1.503L16.99,9.488
		c-0.008-0.244-0.209-0.436-0.447-0.429c-0.065,0.001-0.129,0.017-0.187,0.048l-3.01,1.502l-0.039-1.138
		c-0.007-0.244-0.206-0.436-0.449-0.428c-0.063,0.001-0.128,0.019-0.186,0.048l-2.652,1.334L9.733,5.744
		C9.723,5.356,9.414,5.043,9.03,5.033H6.746c-0.384,0.008-0.695,0.32-0.704,0.706l-0.81,13.45c-0.01,0.191,0.052,0.381,0.174,0.529
		c0.132,0.158,0.325,0.252,0.53,0.252h14.756c0.204,0,0.396-0.094,0.529-0.252c0.126-0.15,0.185-0.344,0.175-0.537
		c-0.219-4.321-0.716-9.642-0.716-9.708C20.668,9.325,20.581,9.193,20.45,9.122z"/>
	<g>
		<path fill="#FFFFFF" d="M10.648,13.155l1.433,0.791c0.051,0.027,0.115,0.009,0.143-0.042l0.974-1.697
			c-0.136-0.227-0.252-0.417-0.306-0.527c-0.183-0.28-0.379-0.527-0.726-0.527l0,0c-0.104,0.002-0.207,0.022-0.301,0.059
			c-0.226,0.098-0.411,0.268-0.527,0.485l-0.742,1.3c-0.028,0.051-0.009,0.115,0.042,0.142L10.648,13.155z"/>
		<path fill="#FFFFFF" d="M14.169,13.259L14.169,13.259v0.046l0,0l0,0l0,0l0,0l0,0l0,0l0,0l0,0l0,0l0,0l0,0l0,0l0,0l-0.383,0.233
			l1.923,0.158l0.59-1.692l-0.347,0.21l0,0H15.92l0,0h-0.031h-0.044h-0.067l0,0c-0.025-0.01-0.042-0.025-0.059-0.042l0,0v-0.03
			l-0.527-0.887l0,0c-0.104-0.195-0.305-0.318-0.526-0.321c-0.274,0-1.055,0-1.691,0c0.086,0.101,0.166,0.208,0.237,0.321
			C13.285,11.773,14.133,13.217,14.169,13.259z"/>
		<path fill="#FFFFFF" d="M15.166,15.036l0.98,1.708h0.591c0.318,0.032,0.632-0.105,0.821-0.365l0,0
			c0.051-0.089,0.084-0.187,0.102-0.289c0.031-0.251-0.024-0.507-0.158-0.723l-0.755-1.295c-0.028-0.051-0.092-0.068-0.144-0.04
			c0,0.001-0.002,0.001-0.002,0.002l-1.396,0.859C15.153,14.923,15.136,14.986,15.166,15.036z"/>
		<path fill="#FFFFFF" d="M14.729,17.044h-0.073l0,0l0,0l0,0l0,0l0,0l0,0l0,0v-0.048l0,0l0,0l0,0v-0.447l-1.099,1.582l1.172,1.352
			v-0.41l0,0c0-0.012,0-0.023,0-0.035l0,0v-0.029l0,0l0,0l0,0c0.012-0.021,0.028-0.039,0.045-0.055l0,0l0.066-0.031h0.041h1.054l0,0
			c0.215,0.006,0.415-0.104,0.527-0.285c0.143-0.236,0.527-0.922,0.85-1.465c-0.129,0.025-0.265,0.041-0.394,0.047
			C16.448,17.033,14.801,17.044,14.729,17.044z"/>
		<path fill="#FFFFFF" d="M12.756,16.948l-1.965-0.026c-0.131,0.234-0.242,0.429-0.284,0.527c-0.191,0.26-0.231,0.602-0.106,0.896
			l0,0c0.054,0.09,0.121,0.172,0.2,0.236c0.196,0.141,0.431,0.213,0.67,0.207h1.497c0.058,0,0.105-0.049,0.105-0.107l0,0v-1.637
			C12.868,16.986,12.816,16.942,12.756,16.948L12.756,16.948z"/>
		<path fill="#FFFFFF" d="M10.032,17.722c0.045-0.125,0.1-0.246,0.163-0.361c0.158-0.314,1.003-1.751,1.054-1.814l0,0l0,0l0,0l0,0
			l0,0l0,0l0,0h0.127l0,0l0,0l0.39,0.222l-0.805-1.756l-1.766,0.316l0.36,0.201l0,0h0.03l0,0l0,0l0,0l0,0l0,0
			c0.003,0.022,0.003,0.046,0,0.067l0,0c0.005,0.025,0.005,0.05,0,0.075l0,0v0.036l-0.526,0.906l0,0
			c-0.116,0.182-0.125,0.411-0.027,0.6C9.333,16.49,9.721,17.179,10.032,17.722z"/>
	</g>
</g>
</svg>
