<?xml version="1.0" encoding="utf-8"?>
<!-- Generator: Adobe Illustrator 16.0.0, SVG Export Plug-In . SVG Version: 6.00 Build 0)  -->
<!DOCTYPE svg PUBLIC "-//W3C//DTD SVG 1.1//EN" "http://www.w3.org/Graphics/SVG/1.1/DTD/svg11.dtd">
<svg version="1.1" id="Capa_1" xmlns="http://www.w3.org/2000/svg" xmlns:xlink="http://www.w3.org/1999/xlink" x="0px" y="0px"
	 width="26.458px" height="33.042px" viewBox="0 0 26.458 33.042" enable-background="new 0 0 26.458 33.042" xml:space="preserve">
<g>
	<path fill="#DE9B81" d="M13.234,0.612c-6.706,0-12.318,5.701-12.318,12.511c0,4.119,2.184,6.812,4.991,9.982
		c2.494,2.848,5.146,4.658,7.327,9.568c2.343-4.91,4.995-6.721,7.486-9.568c2.653-3.171,4.993-5.863,4.993-9.982
		c0-6.811-5.611-12.511-12.478-12.511H13.234z"/>
	<path fill="#FFFFFF" d="M13.243,2.082c-5.944,0-10.919,4.991-10.919,10.951c0,3.604,1.936,5.962,4.424,8.736
		c2.211,2.49,4.561,4.076,6.496,8.375c2.075-4.299,4.428-5.885,6.637-8.375c2.353-2.775,4.425-5.132,4.425-8.736
		c0-5.961-4.974-10.951-11.059-10.951H13.243L13.243,2.082z"/>
</g>
<g>
	<path fill="#CD6729" stroke="#CD6729" stroke-width="0.1" stroke-miterlimit="10" d="M16.731,7.312
		c-0.078,0.078-0.123,0.185-0.123,0.296c0,0.111,0.045,0.217,0.123,0.295c0.46,0.459,0.719,1.083,0.719,1.733
		c0,0.65-0.259,1.274-0.719,1.733c-0.164,0.164-0.164,0.429-0.001,0.593c0.163,0.165,0.429,0.165,0.593,0.001
		c0.617-0.617,0.963-1.454,0.963-2.326c0-0.872-0.346-1.709-0.963-2.326C17.159,7.15,16.895,7.15,16.731,7.312L16.731,7.312z"/>
	<path fill="#CD6729" stroke="#CD6729" stroke-width="0.1" stroke-miterlimit="10" d="M9.916,7.312
		c-0.164-0.162-0.428-0.162-0.592,0C8.706,7.929,8.359,8.766,8.359,9.638c0,0.873,0.347,1.71,0.965,2.327
		c0.164,0.163,0.43,0.163,0.593-0.001c0.163-0.165,0.163-0.43-0.001-0.593c-0.46-0.459-0.718-1.083-0.718-1.733
		c0-0.65,0.258-1.274,0.718-1.733C10.078,7.74,10.078,7.477,9.916,7.312L9.916,7.312z"/>
	<path fill="#CD6729" stroke="#CD6729" stroke-width="0.1" stroke-miterlimit="10" d="M8.149,5.546
		c-0.164-0.162-0.428-0.162-0.592,0C6.474,6.632,5.865,8.104,5.865,9.639c0,1.534,0.609,3.006,1.693,4.093
		c0.079,0.078,0.185,0.121,0.296,0.12c0.168-0.002,0.318-0.105,0.382-0.26c0.064-0.155,0.03-0.334-0.086-0.455
		C7.222,12.208,6.7,10.95,6.7,9.637s0.521-2.572,1.449-3.5C8.311,5.974,8.311,5.71,8.149,5.546L8.149,5.546z"/>
	<path fill="#CD6729" stroke="#CD6729" stroke-width="0.1" stroke-miterlimit="10" d="M18.499,5.546
		c-0.08,0.078-0.125,0.185-0.125,0.295c0,0.111,0.045,0.218,0.125,0.296c0.922,0.931,1.439,2.189,1.439,3.5
		c0,1.311-0.518,2.568-1.439,3.5c-0.164,0.164-0.166,0.429-0.002,0.593s0.43,0.165,0.594,0.001c2.232-2.154,2.232-6.031,0-8.186v0
		C18.924,5.384,18.663,5.384,18.499,5.546L18.499,5.546z"/>
	<path fill="#CD6729" stroke="#CD6729" stroke-width="0.1" stroke-miterlimit="10" d="M14.147,10.885
		c0.359-0.238,0.6-0.62,0.658-1.048c0.057-0.428-0.072-0.86-0.357-1.185c-0.283-0.325-0.694-0.512-1.126-0.512
		s-0.842,0.187-1.126,0.512c-0.284,0.325-0.414,0.757-0.356,1.185c0.058,0.428,0.298,0.81,0.658,1.048L10.27,23.378
		c-0.025,0.111-0.003,0.229,0.06,0.324c0.063,0.096,0.163,0.16,0.275,0.18c0.112,0.021,0.228-0.006,0.32-0.072
		c0.092-0.068,0.153-0.17,0.169-0.283l0.608-3.416h3.237l0.608,3.416c0.041,0.232,0.262,0.387,0.492,0.346
		c0.111-0.02,0.211-0.084,0.275-0.176s0.09-0.207,0.07-0.318L14.147,10.885z M12.698,14.532h1.248l0.349,1.954h-1.953L12.698,14.532
		z M13.323,8.979L13.323,8.979c0.267,0,0.507,0.161,0.609,0.407c0.102,0.246,0.045,0.529-0.143,0.718
		c-0.189,0.188-0.472,0.245-0.718,0.143s-0.406-0.342-0.406-0.608C12.665,9.273,12.959,8.979,13.323,8.979L13.323,8.979z
		 M13.323,11.136h0.017l0.455,2.562h-0.949l0.455-2.562H13.323z M11.855,19.275l0.346-1.955h2.232l0.35,1.955H11.855z"/>
</g>
</svg>
