<?xml version="1.0" encoding="utf-8"?>
<!-- Generator: Adobe Illustrator 25.2.0, SVG Export Plug-In . SVG Version: 6.00 Build 0)  -->
<svg version="1.1" id="Capa_1" xmlns="http://www.w3.org/2000/svg" xmlns:xlink="http://www.w3.org/1999/xlink" x="0px" y="0px"
	 width="26.5px" height="33px" viewBox="0 0 26.5 33" style="enable-background:new 0 0 26.5 33;" xml:space="preserve">
<style type="text/css">
	.st0{fill:#447DA9;}
	.st1{fill:#FFFFFF;}
</style>
<g>
	<path class="st0" d="M13,0.4C6.3,0.4,0.7,6.1,0.7,12.9c0,4.1,2.2,6.8,5,10c2.5,2.8,5.1,4.7,7.3,9.6c2.3-4.9,5-6.7,7.5-9.6
		c2.7-3.2,5-5.9,5-10C25.5,6.1,19.9,0.4,13,0.4C13.1,0.4,13,0.4,13,0.4z"/>
	<path class="st1" d="M13.1,1.9c-5.9,0-10.9,5-10.9,11c0,3.6,1.9,6,4.4,8.7c2.2,2.5,4.6,4.1,6.5,8.4c2.1-4.3,4.4-5.9,6.6-8.4
		c2.4-2.8,4.4-5.1,4.4-8.7C24.1,6.9,19.1,1.9,13.1,1.9L13.1,1.9z"/>
</g>
<circle class="st1" cx="11" cy="14.2" r="0.5"/>
<g>
	<path class="st0" d="M8.5,9.5v4.1c0,0.1,0.1,0.3,0.3,0.3h4.9c0.1,0,0.3-0.1,0.3-0.3c0-0.1-0.1-0.3-0.3-0.3h-1.4v-1.7
		c0-0.4-0.3-0.6-0.7-0.6h-1.3c-0.4,0-0.7,0.3-0.7,0.6v1.7H9V9.6c0-0.1,0.1-0.3,0.3-0.3l0,0h7.3c0.1,0,0.3,0.1,0.3,0.3v3.7h-1.3
		c-0.1,0-0.3,0.1-0.3,0.3s0.1,0.3,0.3,0.3h1.6c0.1,0,0.3-0.1,0.3-0.3l0,0V9.5c0-0.5-0.4-0.9-0.9-0.9l0,0H9.3
		C8.9,8.5,8.5,8.9,8.5,9.5L8.5,9.5z M10.2,11.5C10.2,11.4,10.2,11.4,10.2,11.5C10.3,11.4,10.3,11.4,10.2,11.5l1.4-0.1
		c0.1,0,0.1,0,0.1,0.1l0,0v1.7h-1.6C10.2,13.2,10.2,11.5,10.2,11.5z"/>
	<path class="st0" d="M14.9,13.2L14.9,13.2c-0.3,0-0.4,0.1-0.4,0.3s0.1,0.3,0.3,0.3l0,0l0,0c0.1,0,0.3-0.1,0.3-0.3
		C15.1,13.3,15,13.2,14.9,13.2z"/>
	<path class="st0" d="M9.5,15.5c-0.5,0-0.9,0.4-0.9,0.9c0,0.5,0.4,0.9,0.9,0.9c0.5,0,0.9-0.4,0.9-0.9C10.4,16,10.1,15.5,9.5,15.5
		L9.5,15.5z M9.5,16.8c-0.3,0-0.4-0.1-0.4-0.4S9.3,16,9.5,16c0.3,0,0.4,0.1,0.4,0.4l0,0C9.8,16.7,9.7,16.8,9.5,16.8L9.5,16.8z"/>
	<path class="st0" d="M16.4,15.5c-0.5,0-0.9,0.4-0.9,0.9c0,0.5,0.4,0.9,0.9,0.9c0.5,0,0.9-0.4,0.9-0.9C17.3,16,17,15.5,16.4,15.5
		L16.4,15.5z M16.4,16.8c-0.3,0-0.4-0.1-0.4-0.4s0.1-0.4,0.4-0.4c0.3,0,0.4,0.1,0.4,0.4l0,0C16.8,16.7,16.7,16.8,16.4,16.8
		L16.4,16.8z"/>
	<path class="st0" d="M19,10h-0.3V8.3c0-0.3-0.1-0.5-0.4-0.5C16.7,7.3,14.9,7,13.1,7c-1.8,0-3.6,0.3-5.3,0.8C7.3,7.8,7.2,8,7.2,8.3
		v1.8H6.9c-0.4,0-0.8,0.3-0.8,0.6l0,0v1.7c0,0.4,0.3,0.6,0.8,0.6h0.3v4.8c0,0.5,0.4,0.9,0.9,0.9l0,0l0,0v0.9c0,0.4,0.4,0.8,0.8,0.8
		h0.9c0.4,0,0.8-0.4,0.8-0.8v-0.9H15v0.9c0,0.4,0.4,0.8,0.8,0.8h0.9c0.4,0,0.8-0.4,0.8-0.8v-0.9l0,0c0.5,0,0.9-0.4,1-0.9v-4.8h0.3
		c0.4,0,0.8-0.3,0.8-0.6l0,0v-1.7C19.7,10.4,19.4,10,19,10L19,10z M7.2,12.4H6.9c0,0-0.1,0-0.1-0.1l0,0v-1.7c0,0,0-0.1,0.1-0.1l0,0
		h0.3C7.2,10.6,7.2,12.4,7.2,12.4z M10.2,19.8c0,0.1-0.1,0.1-0.1,0.1H9.1C9,19.9,9,19.8,9,19.8v-0.9h1.3L10.2,19.8L10.2,19.8z
		 M17.1,19.8c0,0.1-0.1,0.1-0.1,0.1H16c-0.1,0-0.1-0.1-0.1-0.1v-0.9h1.3v0.9H17.1z M18.1,17.8c0,0.3-0.1,0.4-0.4,0.4H8.1
		c-0.3,0-0.4-0.1-0.4-0.4V8.3c1.7-0.5,3.4-0.8,5.2-0.8c1.7,0,3.5,0.3,5.2,0.8V17.8L18.1,17.8z M19.2,12.3
		C19.2,12.4,19,12.4,19.2,12.3l-0.5,0.1v-1.8h0.3c0,0,0.1,0,0.1,0.1L19.2,12.3z"/>
</g>
</svg>
