<?xml version="1.0" encoding="utf-8"?>
<!-- Generator: Adobe Illustrator 25.2.0, SVG Export Plug-In . SVG Version: 6.00 Build 0)  -->
<svg version="1.1" id="Capa_1" xmlns="http://www.w3.org/2000/svg" xmlns:xlink="http://www.w3.org/1999/xlink" x="0px" y="0px"
	 width="26.5px" height="33px" viewBox="0 0 26.5 33" style="enable-background:new 0 0 26.5 33;" xml:space="preserve">
<style type="text/css">
	.st0{fill:#447DA9;}
	.st1{fill:#FFFFFF;}
</style>
<g>
	<path class="st0" d="M13.3,0.9C6.6,0.9,1,6.6,1,13.4c0,4.1,2.2,6.8,5,10c2.5,2.8,5.1,4.7,7.3,9.6c2.3-4.9,5-6.7,7.5-9.6
		c2.7-3.2,5-5.9,5-10C25.8,6.6,20.2,0.9,13.3,0.9L13.3,0.9z"/>
	<path class="st1" d="M13.3,2.4c-5.9,0-10.9,5-10.9,10.9c0,3.6,1.9,6,4.4,8.7c2.2,2.5,4.6,4.1,6.5,8.4c2.1-4.3,4.4-5.9,6.6-8.4
		c2.4-2.8,4.4-5.1,4.4-8.7C24.4,7.4,19.4,2.4,13.3,2.4L13.3,2.4z"/>
</g>
<circle class="st1" cx="11" cy="14.2" r="0.5"/>
<g>
	<path class="st0" d="M15.1,6.2h-4c-0.5,0-0.9,0.4-0.9,1v2.2H16V7.2C16,6.6,15.6,6.2,15.1,6.2z M15.4,8.7h-4.6V7.2
		c0-0.1,0.1-0.3,0.3-0.3l0,0h4c0.1,0,0.3,0.1,0.3,0.3l0,0L15.4,8.7z"/>
	<path class="st0" d="M19.7,8V7.6c0-0.4-0.4-0.7-0.9-1.3l-0.4-0.4c0,0-0.3,0-0.4,0.1c-0.1,0.1-0.1,0.3,0,0.4l0.4,0.4
		C18.6,7.2,19,7.5,19,7.6v0.1c-0.4,0.1-0.9,0.7-0.9,1v1.7c0,0.4,0.7,0.8,1,1.1v6.3c0,0.1-0.1,0.3-0.3,0.3s-0.3-0.1-0.3-0.3v-5.3
		c0-0.3,0-0.6-0.3-0.8c-0.1-0.1-0.4-0.3-0.7-0.3h-0.3V6.8c0-1.1-0.8-2-1.8-2h-5c-1,0-1.8,0.8-1.8,2v12.4H7.9c-0.7,0-1.2,0.6-1.2,1.3
		v0.4h12.8v-0.4c0-0.7-0.5-1.3-1.2-1.3h-0.9v-7.1h0.3c0.1,0,0.1,0,0.3,0c0,0.1,0.1,0.3,0.1,0.4v5.3c0,0.6,0.4,1,0.9,1
		c0.5,0,0.9-0.4,0.9-1v-6.6l0,0V8H19.7z M9.4,6.8c0-0.7,0.5-1.4,1.3-1.4l0,0h4.8c0.7,0,1.2,0.6,1.2,1.3v12.4H9.2L9.4,6.8z
		 M18.2,19.8c0.3,0,0.5,0.1,0.5,0.4H7.3c0.1-0.3,0.4-0.4,0.7-0.4H18.2z M19.1,10.7c-0.1-0.1-0.3-0.3-0.4-0.4V8.7
		c0.1-0.1,0.3-0.3,0.4-0.4V10.7z"/>
</g>
</svg>
