<?xml version="1.0" encoding="utf-8"?>
<!-- Generator: Adobe Illustrator 16.0.0, SVG Export Plug-In . SVG Version: 6.00 Build 0)  -->
<!DOCTYPE svg PUBLIC "-//W3C//DTD SVG 1.1//EN" "http://www.w3.org/Graphics/SVG/1.1/DTD/svg11.dtd">
<svg version="1.1" id="Capa_1" xmlns="http://www.w3.org/2000/svg" xmlns:xlink="http://www.w3.org/1999/xlink" x="0px" y="0px"
	 width="26.458px" height="33.042px" viewBox="0 0 26.458 33.042" enable-background="new 0 0 26.458 33.042" xml:space="preserve">
<g>
	<path fill="#BF7D63" d="M13.234,0.612c-6.706,0-12.318,5.701-12.318,12.511c0,4.119,2.184,6.812,4.991,9.982
		c2.494,2.848,5.146,4.658,7.327,9.568c2.343-4.91,4.995-6.721,7.486-9.568c2.653-3.171,4.993-5.863,4.993-9.982
		C25.713,6.312,20.102,0.612,13.234,0.612L13.234,0.612z"/>
	<path fill="#FFFFFF" d="M13.243,2.082c-5.944,0-10.919,4.991-10.919,10.951c0,3.604,1.936,5.962,4.424,8.736
		c2.211,2.49,4.561,4.076,6.496,8.375c2.075-4.299,4.428-5.885,6.637-8.375c2.353-2.775,4.425-5.132,4.425-8.736
		c0-5.961-4.974-10.951-11.059-10.951H13.243L13.243,2.082z"/>
</g>
<path fill="#CC6421" stroke="#CC6421" stroke-width="0.2" stroke-miterlimit="10" d="M13.363,19.271L13.363,19.271
	c1.097,0,2.177-0.277,3.138-0.805c0.211-0.119,0.285-0.385,0.168-0.596c-0.021-0.037-0.045-0.07-0.074-0.099l-2.9-2.901
	c0.482-0.682,0.32-1.626-0.361-2.109c-0.523-0.37-1.224-0.37-1.747,0l-2.9-2.91c-0.098-0.097-0.234-0.144-0.37-0.124
	C8.181,9.75,8.061,9.829,7.99,9.947c-1.223,2.193-1.019,4.904,0.517,6.89l-1.783,3.454c-0.108,0.219-0.018,0.484,0.201,0.592
	c0.058,0.029,0.121,0.045,0.186,0.045h5.815c0.241,0,0.438-0.194,0.438-0.438L13.363,19.271L13.363,19.271z"/>
<path fill="#CC6421" stroke="#CC6421" stroke-width="0.2" stroke-miterlimit="10" d="M12.897,13.541
	c0.181,0.181,0.235,0.452,0.14,0.689l-0.806-0.829c0.237-0.096,0.508-0.041,0.689,0.14H12.897z"/>
<path fill="#CC6421" stroke="#CC6421" stroke-width="0.2" stroke-miterlimit="10" d="M12.464,20.058H7.809l1.267-2.532
	c0.926,0.899,2.111,1.487,3.389,1.681L12.464,20.058L12.464,20.058z"/>
<path fill="#CC6421" stroke="#CC6421" stroke-width="0.2" stroke-miterlimit="10" d="M13.395,18.401L13.395,18.401
	c-2.964-0.024-5.348-2.447-5.323-5.412c0.005-0.713,0.154-1.418,0.435-2.074l7.035,7.043c-0.666,0.285-1.385,0.433-2.108,0.433
	L13.395,18.401z"/>
<path fill="#CC6421" stroke="#CC6421" stroke-width="0.2" stroke-miterlimit="10" d="M12.808,11.185c1.36,0,2.463,1.103,2.463,2.463
	c0.024,0.243,0.242,0.419,0.485,0.395c0.207-0.022,0.373-0.187,0.395-0.395c-0.011-1.84-1.503-3.326-3.343-3.329
	c-0.242,0.025-0.419,0.242-0.395,0.485c0.021,0.208,0.187,0.373,0.395,0.395V11.185z"/>
<path fill="#CC6421" stroke="#CC6421" stroke-width="0.2" stroke-miterlimit="10" d="M13.092,7.614
	c-0.257,0.015-0.453,0.235-0.438,0.491c0,0.004,0.001,0.008,0.001,0.012c0.015,0.257,0.233,0.453,0.491,0.439
	c0.005,0,0.011,0,0.016-0.001c1.398-0.107,2.76,0.479,3.641,1.569c0.705,1.024,1.043,2.256,0.96,3.496
	c-0.011,0.125,0.028,0.25,0.11,0.345c0.164,0.198,0.459,0.225,0.655,0.061h0.001c0.102-0.082,0.163-0.201,0.172-0.331
	c0.104-1.482-0.31-2.954-1.168-4.167C16.458,8.2,14.797,7.485,13.092,7.614z"/>
<path fill="#CC6421" stroke="#CC6421" stroke-width="0.2" stroke-miterlimit="10" d="M12.501,4.607
	c-0.257,0.017-0.451,0.238-0.435,0.495c0.001,0.004,0.001,0.008,0.001,0.012c0.01,0.125,0.068,0.24,0.163,0.321
	c0.096,0.082,0.22,0.122,0.345,0.111c4.173-0.343,7.835,2.764,8.179,6.938c0.037,0.461,0.033,0.925-0.014,1.386
	c-0.014,0.124,0.022,0.248,0.102,0.345c0.078,0.098,0.193,0.16,0.318,0.172c0.254,0.029,0.484-0.154,0.514-0.409
	c0.002-0.003,0.002-0.006,0.002-0.01c0.479-4.683-2.93-8.867-7.612-9.346C13.544,4.57,13.021,4.564,12.501,4.607z"/>
</svg>
