<?xml version="1.0" encoding="utf-8"?>
<!-- Generator: Adobe Illustrator 16.0.0, SVG Export Plug-In . SVG Version: 6.00 Build 0)  -->
<!DOCTYPE svg PUBLIC "-//W3C//DTD SVG 1.1//EN" "http://www.w3.org/Graphics/SVG/1.1/DTD/svg11.dtd">
<svg version="1.1" id="Capa_1" xmlns="http://www.w3.org/2000/svg" xmlns:xlink="http://www.w3.org/1999/xlink" x="0px" y="0px"
	 width="26.458px" height="33.042px" viewBox="0 0 26.458 33.042" enable-background="new 0 0 26.458 33.042" xml:space="preserve">
<g>
	<path fill="#BF7D63" d="M13.234,0.612c-6.706,0-12.318,5.701-12.318,12.511c0,4.119,2.184,6.812,4.991,9.982
		c2.494,2.848,5.146,4.658,7.327,9.568c2.343-4.91,4.995-6.721,7.486-9.568c2.653-3.171,4.993-5.863,4.993-9.982
		C25.713,6.312,20.102,0.612,13.234,0.612L13.234,0.612z"/>
	<path fill="#FFFFFF" d="M13.243,2.082c-5.944,0-10.919,4.991-10.919,10.951c0,3.604,1.936,5.962,4.424,8.736
		c2.211,2.49,4.561,4.076,6.496,8.375c2.075-4.299,4.428-5.885,6.637-8.375c2.353-2.775,4.425-5.132,4.425-8.736
		c0-5.961-4.974-10.951-11.059-10.951H13.243L13.243,2.082z"/>
</g>
<path fill="#CC6421" d="M19.948,12.026c0.936-0.361,1.569-1.24,1.618-2.241l0,0l0,0c-0.001-0.029-0.006-0.057-0.013-0.083
	c0.002-0.022,0.002-0.044,0-0.066l-1.83-4.707c-0.059-0.141-0.195-0.231-0.349-0.228H7.658C7.518,4.699,7.39,4.778,7.327,4.903
	L4.894,9.597l0,0c-0.003,0.024-0.003,0.047,0,0.071c-0.003,0.023-0.003,0.047,0,0.07l0,0c0.026,1.009,0.647,1.907,1.581,2.288v8.276
	c0,0.206,0.167,0.372,0.374,0.372l0,0h12.724c0.208,0,0.375-0.166,0.375-0.372l0,0V12.026z M19.121,5.435l1.528,3.963h-4.44
	L15.76,5.435H19.121z M15.009,5.435l0.443,3.963h-4.412l0.942-3.963H15.009z M15.448,10.146c-0.22,0.83-1.137,1.428-2.236,1.428
	c-1.1,0-2.017-0.614-2.237-1.428H15.448z M7.886,5.435h3.32l-0.942,3.963H5.84L7.886,5.435z M5.645,10.146h4.482
	c-0.22,0.83-1.141,1.428-2.237,1.428S5.869,10.959,5.645,10.146z M19.221,15.387H7.223v-3.129c0.22,0.039,0.444,0.061,0.668,0.062
	c1.052,0.027,2.048-0.468,2.66-1.324c0.611,0.857,1.608,1.354,2.661,1.324c1.052,0.03,2.05-0.467,2.659-1.324
	c0.613,0.856,1.609,1.352,2.661,1.324c0.226-0.001,0.448-0.023,0.669-0.062L19.221,15.387z M18.552,11.573
	c-1.095,0-2.017-0.614-2.236-1.428h4.456c-0.219,0.813-1.14,1.428-2.24,1.428H18.552z"/>
</svg>
