<?xml version="1.0" encoding="utf-8"?>
<!-- Generator: Adobe Illustrator 16.0.0, SVG Export Plug-In . SVG Version: 6.00 Build 0)  -->
<!DOCTYPE svg PUBLIC "-//W3C//DTD SVG 1.1//EN" "http://www.w3.org/Graphics/SVG/1.1/DTD/svg11.dtd">
<svg version="1.1" id="Capa_1" xmlns="http://www.w3.org/2000/svg" xmlns:xlink="http://www.w3.org/1999/xlink" x="0px" y="0px"
	 width="26.458px" height="33.042px" viewBox="0 0 26.458 33.042" enable-background="new 0 0 26.458 33.042" xml:space="preserve">
<g>
	<path fill="#DE9B81" d="M13.234,0.612c-6.706,0-12.318,5.701-12.318,12.511c0,4.119,2.184,6.812,4.991,9.982
		c2.494,2.848,5.146,4.658,7.327,9.568c2.343-4.91,4.995-6.721,7.486-9.568c2.653-3.171,4.993-5.863,4.993-9.982
		C25.713,6.312,20.102,0.612,13.234,0.612L13.234,0.612z"/>
	<path fill="#FFFFFF" d="M13.243,2.082c-5.944,0-10.919,4.991-10.919,10.951c0,3.604,1.936,5.962,4.424,8.736
		c2.211,2.49,4.561,4.076,6.496,8.375c2.075-4.299,4.428-5.885,6.637-8.375c2.353-2.775,4.425-5.132,4.425-8.736
		c0-5.961-4.974-10.951-11.059-10.951H13.243L13.243,2.082z"/>
</g>
<g>
	<path fill="#CC6421" d="M12.892,17.935l-0.259-0.114c-0.192-0.076-0.409,0.018-0.486,0.209c-0.069,0.173,0.001,0.369,0.164,0.464
		l0.31,0.136c0.192,0.079,0.409-0.016,0.484-0.206c0.076-0.194-0.017-0.411-0.209-0.484h-0.004V17.935z"/>
	<path fill="#CC6421" d="M10.428,14.562c0-0.207-0.168-0.375-0.374-0.375c-0.205,0-0.372,0.168-0.372,0.375
		c0.011,1.197,0.539,2.329,1.447,3.109c0.158,0.139,0.397,0.12,0.534-0.037c0.137-0.159,0.118-0.4-0.041-0.534l0,0
		C10.874,16.466,10.438,15.539,10.428,14.562z"/>
	<path fill="#CC6421" d="M17.518,8.43c-1.028-1.673-2.168-3.276-3.409-4.801c-0.387-0.436-1.053-0.478-1.491-0.092
		c-0.034,0.03-0.064,0.06-0.094,0.092c-1.24,1.525-2.376,3.128-3.405,4.801C7.455,11.178,6.61,13.47,6.61,15.246
		c0,3.701,3.003,6.706,6.706,6.706c3.706,0,6.705-3.003,6.705-6.706C20.02,13.47,19.177,11.172,17.518,8.43z M13.315,20.917
		c-3.131-0.003-5.669-2.54-5.671-5.671c0-1.58,0.792-3.693,2.36-6.283c1.002-1.626,2.108-3.189,3.308-4.679
		c1.208,1.485,2.318,3.048,3.318,4.679c1.563,2.584,2.355,4.697,2.355,6.283C18.98,18.373,16.445,20.909,13.315,20.917z"/>
</g>
</svg>
