<?xml version="1.0" encoding="utf-8"?>
<!-- Generator: Adobe Illustrator 16.0.0, SVG Export Plug-In . SVG Version: 6.00 Build 0)  -->
<!DOCTYPE svg PUBLIC "-//W3C//DTD SVG 1.1//EN" "http://www.w3.org/Graphics/SVG/1.1/DTD/svg11.dtd">
<svg version="1.1" id="Capa_1" xmlns="http://www.w3.org/2000/svg" xmlns:xlink="http://www.w3.org/1999/xlink" x="0px" y="0px"
	 width="26.5px" height="33px" viewBox="0 0 26.5 33" enable-background="new 0 0 26.5 33" xml:space="preserve">
<g>
	<path fill="#447DA9" d="M13,0.4C6.3,0.4,0.7,6.1,0.7,12.9c0,4.1,2.2,6.8,5,10c2.5,2.8,5.1,4.699,7.3,9.6c2.3-4.9,5-6.7,7.5-9.6
		c2.7-3.2,5-5.9,5-10C25.5,6.1,19.9,0.4,13,0.4C13.1,0.4,13,0.4,13,0.4z"/>
	<path fill="#FFFFFF" d="M13.1,1.9c-5.9,0-10.9,5-10.9,11c0,3.6,1.9,6,4.4,8.7c2.2,2.5,4.6,4.101,6.5,8.4c2.1-4.3,4.4-5.9,6.6-8.4
		c2.399-2.8,4.399-5.1,4.399-8.7C24.1,6.9,19.1,1.9,13.1,1.9L13.1,1.9z"/>
</g>
<circle fill="#FFFFFF" cx="11" cy="14.2" r="0.5"/>
<path fill="#447DA9" d="M7.2,12.4H6.9c0,0-0.1,0-0.1-0.1l0,0v-1.7c0,0,0-0.1,0.1-0.1l0,0h0.3C7.2,10.6,7.2,12.4,7.2,12.4z"/>
<path fill="#447DA9" d="M10.2,19.8c0,0.101-0.1,0.101-0.1,0.101h-1C9,19.9,9,19.8,9,19.8V18.9h1.3L10.2,19.8L10.2,19.8z"/>
<path fill="#447DA9" d="M19.2,12.3C19.2,12.4,19,12.4,19.2,12.3l-0.5,0.1v-1.8H19c0,0,0.1,0,0.1,0.1L19.2,12.3z"/>
<path fill="#447DA9" d="M15.64,12.834L15.64,12.834c-0.374,0-0.498,0.124-0.498,0.373c0,0.249,0.124,0.373,0.373,0.373l0,0l0,0
	c0.125,0,0.372-0.124,0.372-0.373C15.887,12.958,15.764,12.834,15.64,12.834z"/>
<path fill="#447DA9" d="M20.733,8.858h-0.372V6.746c0-0.373-0.125-0.622-0.498-0.622C17.876,5.503,15.64,5.13,13.402,5.13
	c-2.237,0-4.473,0.373-6.585,0.994c-0.622,0-0.745,0.249-0.745,0.622v2.237H5.699c-0.497,0-0.417,0.373-0.417,0.746l0,0v2.112
	c0,0.497-0.032,0.457,0.417,0.746h0.373v5.963c0,0.621,0.497,1.119,1.118,1.119l0,0l0,0v1.117c0,0.498,0.497,0.996,0.994,0.996
	h1.118c0.498,0,0.995-0.498,0.995-0.996v-1.117h5.467v1.117c0,0.498,0.497,0.996,0.993,0.996h1.119c0.496,0,0.993-0.498,0.993-0.996
	v-1.117l0,0c0.622,0,1.119-0.498,1.243-1.119v-5.963h0.372c0.498,0,0.453-0.373,0.453-0.746l0,0V9.728
	C20.938,9.348,21.069,8.858,20.733,8.858L20.733,8.858z"/>
<path fill="#447DA9" d="M18.372,21.035c0,0.125-0.124,0.125-0.124,0.125h-1.242c-0.124,0-0.124-0.125-0.124-0.125v-1.117h1.615
	v1.117H18.372z"/>
<path fill="#447DA9" d="M19.614,18.549c0,0.373-0.123,0.498-0.496,0.498H7.19c-0.373,0-0.497-0.125-0.497-0.498V6.746
	c2.112-0.622,4.225-0.994,6.461-0.994c2.112,0,4.349,0.373,6.46,0.994V18.549L19.614,18.549z"/>
<g>
	<path fill="#FFFFFF" d="M9.849,12.129H9.274V8.688c0-0.093,0.096-0.28,0.287-0.28l0,0h6.988c0.098,0,0.288,0.094,0.288,0.28v3.442
		h-1.244c-0.097,0-0.287,0.093-0.287,0.279c0,0.186,0.096,0.279,0.287,0.279h1.531c0.097,0,0.288-0.093,0.288-0.279l0,0V8.594
		c0-0.465-0.385-0.837-0.863-0.837l0,0H9.562C9.178,7.663,8.796,8.036,8.796,8.594l0,0v3.814c0,0.093,0.096,0.279,0.287,0.279h4.693
		c0.095,0,0.286-0.093,0.286-0.279c0-0.093-0.096-0.279-0.286-0.279h-1.342"/>
</g>
<g>
	<path fill="#FFFFFF" d="M9.65,15.296c-0.7,0-1.258,0.56-1.258,1.259c0,0.699,0.559,1.257,1.258,1.257
		c0.699,0,1.258-0.559,1.258-1.257C10.908,15.996,10.49,15.296,9.65,15.296L9.65,15.296z"/>
</g>
<path fill="#FFFFFF" d="M9.183,17.191c-0.373,0-0.497-0.123-0.497-0.496c0-0.373,0.248-0.497,0.497-0.497
	c0.373,0,0.496,0.124,0.496,0.497l0,0C9.555,17.068,9.431,17.191,9.183,17.191L9.183,17.191z"/>
<path fill="#FFFFFF" d="M16.881,15.279c-0.703,0-1.267,0.563-1.267,1.268c0,0.703,0.563,1.266,1.267,1.266
	c0.705,0,1.269-0.563,1.269-1.266C18.149,15.984,17.726,15.279,16.881,15.279L16.881,15.279z"/>
<g>
	<path fill="#FFFFFF" d="M17.328,17.191c-0.373,0-0.497-0.123-0.497-0.496c0-0.373,0.124-0.497,0.497-0.497
		c0.374,0,0.498,0.124,0.498,0.497l0,0C17.826,17.068,17.702,17.191,17.328,17.191L17.328,17.191z"/>
</g>
<rect x="9" y="8.14" fill="#FFFFFF" width="8.18" height="4.547"/>
</svg>
