<?xml version="1.0" encoding="utf-8"?>
<!-- Generator: Adobe Illustrator 25.2.0, SVG Export Plug-In . SVG Version: 6.00 Build 0)  -->
<svg version="1.1" id="Capa_1" xmlns="http://www.w3.org/2000/svg" xmlns:xlink="http://www.w3.org/1999/xlink" x="0px" y="0px"
	 width="26.5px" height="33px" viewBox="0 0 26.5 33" style="enable-background:new 0 0 26.5 33;" xml:space="preserve">
<style type="text/css">
	.st0{fill:#447DA9;}
	.st1{fill:#FFFFFF;}
	.st2{fill:#447EA9;stroke:#447EA9;stroke-miterlimit:10;}
	.st3{fill:#447DA9;stroke:#447DA9;stroke-width:0.25;stroke-miterlimit:10;}
	.st4{fill:#FFFFFF;stroke:#447DA9;stroke-width:0.25;stroke-miterlimit:10;}
</style>
<g>
	<path class="st0" d="M13.1,0.7c-6.6,0-12,5.6-12,12.3c0,4.1,2.1,6.7,4.9,9.8c2.4,2.8,5,4.6,7.2,9.4c2.3-4.8,4.9-6.6,7.3-9.4
		c2.6-3.1,4.9-5.8,4.9-9.8C25.3,6.3,19.8,0.7,13.1,0.7L13.1,0.7z"/>
	<path class="st1" d="M13.1,2.2C7.3,2.2,2.5,7.1,2.5,13c0,3.6,1.9,5.9,4.3,8.6c2.2,2.5,4.5,4,6.4,8.3c2-4.2,4.3-5.8,6.5-8.3
		C22,18.9,24,16.5,24,13C23.9,7.1,19.1,2.2,13.1,2.2L13.1,2.2z"/>
</g>
<circle class="st1" cx="11.1" cy="13.5" r="0.5"/>
<g>
	<path class="st2" d="M8.6,20.7H8.3c-0.4,0-0.8-0.3-0.8-0.8V6.8C7.6,6.4,7.9,6,8.3,6h0.3C9,6,9.4,6.4,9.4,6.8v13.1
		C9.4,20.4,9,20.7,8.6,20.7z"/>
	<g>
		<path class="st3" d="M8.5,9.1c-0.6,0-1.1-0.7-1.1-1.4c0-0.7,0.5-1.4,1.1-1.4S9.6,7,9.6,7.7S9.1,9.1,8.5,9.1z M8.5,6.9
			c-0.3,0-0.6,0.4-0.6,0.8c0,0.4,0.3,0.8,0.6,0.8s0.6-0.4,0.6-0.8C9.1,7.3,8.8,6.9,8.5,6.9z"/>
		<path class="st3" d="M19.8,9.1H8.5C8.3,9.1,8.3,9,8.3,8.8c0-0.1,0.2-0.3,0.2-0.3h11.3c0.3,0,0.6-0.4,0.6-0.8
			c0-0.4-0.3-0.8-0.6-0.8H8.5c-0.2,0-0.2-0.1-0.2-0.3s0.2-0.3,0.2-0.3h11.3c0.6,0,1.1,0.7,1.1,1.4C20.8,8.4,20.4,9.1,19.8,9.1
			L19.8,9.1z"/>
		<path class="st3" d="M19,9.1c-0.2,0-0.2,0-0.2-0.1l-0.9-2.2c0-0.1,0-0.3,0.2-0.4s0.3,0,0.3,0.1l0.9,2.2C19.3,8.8,19.3,9.1,19,9.1
			C19.1,9.1,19.1,9.1,19,9.1L19,9.1z"/>
		<path class="st3" d="M16.9,9.1c-0.2,0-0.2,0-0.2-0.1l-0.9-2.2c0-0.1,0-0.3,0.2-0.4s0.3,0,0.3,0.1l0.9,2.2
			C17.2,8.8,17.2,9.1,16.9,9.1C17,9.1,16.9,9.1,16.9,9.1L16.9,9.1z"/>
		<path class="st3" d="M14.7,9.1c-0.2,0-0.2,0-0.2-0.1l-0.9-2.2c0-0.1,0-0.3,0.2-0.4s0.3,0,0.3,0.1L15,8.7C15,8.8,14.9,9.1,14.7,9.1
			L14.7,9.1L14.7,9.1z"/>
		<path class="st3" d="M12.6,9.1c-0.2,0-0.2,0-0.2-0.1l-0.9-2.2c0-0.1,0-0.3,0.2-0.4s0.3,0,0.3,0.1l0.9,2.2
			C12.7,8.8,12.7,9.1,12.6,9.1L12.6,9.1L12.6,9.1z"/>
	</g>
	<ellipse class="st4" cx="8.5" cy="7.7" rx="1.2" ry="1.2"/>
</g>
</svg>
