<?xml version="1.0" encoding="utf-8"?>
<!-- Generator: Adobe Illustrator 25.2.0, SVG Export Plug-In . SVG Version: 6.00 Build 0)  -->
<svg version="1.1" id="Capa_1" xmlns="http://www.w3.org/2000/svg" xmlns:xlink="http://www.w3.org/1999/xlink" x="0px" y="0px"
	 width="26.5px" height="33px" viewBox="0 0 26.5 33" style="enable-background:new 0 0 26.5 33;" xml:space="preserve">
<style type="text/css">
	.st0{fill:#5484A9;}
	.st1{fill:#FFFFFF;}
	.st2{fill-rule:evenodd;clip-rule:evenodd;fill:#5484A9;}
</style>
<g>
	<path class="st0" d="M13.2,0.4C6.5,0.4,0.9,6.1,0.9,12.9c0,4.1,2.2,6.8,5,10c2.5,2.8,5.1,4.7,7.3,9.6c2.3-4.9,5-6.7,7.5-9.6
		c2.7-3.2,5-5.9,5-10C25.7,6.1,20.1,0.4,13.2,0.4L13.2,0.4z"/>
	<path class="st1" d="M13.2,1.9c-5.9,0-10.9,5-10.9,11c0,3.6,1.9,6,4.4,8.7c2.2,2.5,4.6,4.1,6.5,8.4c2.1-4.3,4.4-5.9,6.6-8.4
		c2.4-2.8,4.4-5.1,4.4-8.7C24.3,6.9,19.3,1.9,13.2,1.9L13.2,1.9z"/>
</g>
<path class="st2" d="M18.7,13.9C18.1,12,17.6,10,17,8.1h-2.2V7c0-1.2-0.7-2.2-1.6-2.2s-1.6,1-1.6,2.2v1.1H9.5
	c-0.5,2-1.1,3.9-1.6,5.8c-0.6,1.9-1.1,3.9-1.7,5.8h7.1h7.1C19.9,17.8,19.3,15.9,18.7,13.9L18.7,13.9z M12.2,7c0-0.8,0.5-1.5,1.1-1.5
	s1.1,0.7,1.1,1.5v1.1h-1h-1.1L12.2,7z"/>
</svg>
