<?xml version="1.0" encoding="utf-8"?>
<!-- Generator: Adobe Illustrator 16.0.0, SVG Export Plug-In . SVG Version: 6.00 Build 0)  -->
<!DOCTYPE svg PUBLIC "-//W3C//DTD SVG 1.1//EN" "http://www.w3.org/Graphics/SVG/1.1/DTD/svg11.dtd">
<svg version="1.1" id="Capa_1" xmlns="http://www.w3.org/2000/svg" xmlns:xlink="http://www.w3.org/1999/xlink" x="0px" y="0px"
	 width="26.5px" height="33px" viewBox="0 0 26.5 33" enable-background="new 0 0 26.5 33" xml:space="preserve">
<g>
	<path fill="#447DA9" d="M13.3,0.9C6.6,0.9,1,6.6,1,13.4c0,4.1,2.2,6.8,5,10c2.5,2.8,5.1,4.699,7.3,9.6c2.3-4.9,5-6.7,7.5-9.6
		c2.7-3.2,5-5.9,5-10C25.8,6.6,20.2,0.9,13.3,0.9L13.3,0.9z"/>
	<path fill="#FFFFFF" d="M13.3,2.4c-5.9,0-10.9,5-10.9,10.9c0,3.6,1.9,6,4.4,8.7c2.2,2.5,4.6,4.1,6.5,8.4
		C15.4,26.1,17.7,24.5,19.9,22c2.399-2.8,4.399-5.1,4.399-8.7C24.4,7.4,19.4,2.4,13.3,2.4L13.3,2.4z"/>
</g>
<g>
	<circle fill="#FFFFFF" cx="10.932" cy="14.888" r="0.581"/>
	<path fill="#447DA9" d="M20.348,11.749v7.324c0,0.117-0.115,0.348-0.348,0.348c-0.233,0-0.349-0.114-0.349-0.348v-6.162
		c0-0.349,0-0.697-0.35-0.93c-0.116-0.117-0.465-0.349-0.813-0.349h-0.35V6.285c0-1.278-0.93-2.324-2.092-2.324h-5.813
		c-1.163,0-2.092,0.93-2.092,2.324v14.417h0.014c0,1.392-0.014,0.657-0.014,1.47v0.505h10.248v-0.466
		c0-0.813-0.018,0.242-0.018-1.509l0,0v-8.255h0.348c0.116,0,0.116,0,0.35,0c0,0.116,0.115,0.349,0.115,0.465v6.162
		c0,0.697,0.466,1.163,1.047,1.163s1.047-0.466,1.047-1.163v-7.672l0,0l-0.232-3.72l0,0V7.215c0-0.465-0.466-0.814-1.047-1.512
		l-0.465-0.464c0,0-0.35,0-0.465,0.116c-0.116,0.116-0.116,0.348,0,0.465l0.465,0.464c0.231,0.466,0.697,0.814,0.697,0.931v0.116"/>
	<path fill="#447DA9" d="M9.072,6.285c0-0.813,0.582-1.627,1.512-1.627l0,0h5.58c0.814,0,1.396,0.698,1.396,1.512v14.414H8.84
		L9.072,6.285z"/>
	<g>
		<path fill="#FFFFFF" stroke="#FFFFFF" stroke-miterlimit="10" d="M15.581,6.169h-4.649c-0.581,0-1.046,0.465-1.046,1.162v2.558
			h6.742V7.332C16.628,6.634,16.162,6.169,15.581,6.169z"/>
		<path fill="#FFFFFF" stroke="#FFFFFF" stroke-miterlimit="10" d="M15.931,9.076h-5.348V7.332c0-0.116,0.116-0.349,0.349-0.349l0,0
			h4.649c0.118,0,0.35,0.116,0.35,0.349l0,0V9.076z"/>
	</g>
	<path fill="#447DA9" d="M20.348,8.029v2.791"/>
</g>
</svg>
