<?xml version="1.0" encoding="utf-8"?>
<!-- Generator: Adobe Illustrator 16.0.0, SVG Export Plug-In . SVG Version: 6.00 Build 0)  -->
<!DOCTYPE svg PUBLIC "-//W3C//DTD SVG 1.1//EN" "http://www.w3.org/Graphics/SVG/1.1/DTD/svg11.dtd">
<svg version="1.1" id="Capa_1" xmlns="http://www.w3.org/2000/svg" xmlns:xlink="http://www.w3.org/1999/xlink" x="0px" y="0px"
	 width="26.458px" height="33.042px" viewBox="0 0 26.458 33.042" enable-background="new 0 0 26.458 33.042" xml:space="preserve">
<g>
	<path fill="#B58C72" d="M13.234,0.612c-6.706,0-12.318,5.701-12.318,12.511c0,4.119,2.184,6.812,4.991,9.982
		c2.494,2.848,5.146,4.658,7.327,9.568c2.343-4.91,4.995-6.721,7.486-9.568c2.653-3.171,4.993-5.863,4.993-9.982
		C25.713,6.312,20.102,0.612,13.234,0.612L13.234,0.612z"/>
	<path fill="#FFFFFF" d="M13.243,2.082c-5.944,0-10.919,4.991-10.919,10.951c0,3.604,1.936,5.962,4.424,8.736
		c2.211,2.49,4.561,4.076,6.496,8.375c2.075-4.299,4.428-5.885,6.637-8.375c2.353-2.775,4.425-5.132,4.425-8.736
		c0-5.961-4.974-10.951-11.059-10.951H13.243L13.243,2.082z"/>
</g>
<g>
	<path fill="#945A36" d="M20.875,12.918H6.864V7.943c0.012-0.632-0.431-1.181-1.05-1.303C5.448,6.585,5.076,6.688,4.79,6.923
		C4.512,7.165,4.354,7.515,4.356,7.883v9.549c-0.012,0.631,0.431,1.181,1.05,1.302c0.686,0.11,1.332-0.357,1.442-1.043
		c0.01-0.063,0.016-0.125,0.016-0.189v-2.066h12.892v2.018c-0.012,0.632,0.431,1.18,1.051,1.303c0.068,0.006,0.139,0.006,0.208,0
		c0.695,0,1.259-0.564,1.259-1.26l0,0v-3.186c0-0.769-0.623-1.393-1.395-1.393C20.879,12.918,20.877,12.918,20.875,12.918z"/>
	<path fill="#945A36" d="M9.469,12.175c1.162,0,2.104-0.942,2.104-2.105c0-1.164-0.942-2.105-2.104-2.105
		c-1.163,0-2.105,0.941-2.105,2.105c0,0.001,0,0.003,0,0.004c0,1.161,0.94,2.101,2.101,2.101
		C9.466,12.175,9.467,12.175,9.469,12.175z"/>
	<path fill="#945A36" d="M12.321,12.175h8.799c0.215,0,0.39-0.175,0.39-0.391l0,0v-1.567c-0.002-1.078-0.875-1.952-1.953-1.954
		h-7.235c-0.216,0-0.391,0.175-0.391,0.391v3.13C11.93,12,12.104,12.175,12.321,12.175L12.321,12.175z"/>
</g>
</svg>
