<?xml version="1.0" encoding="utf-8"?>
<!-- Generator: Adobe Illustrator 16.0.0, SVG Export Plug-In . SVG Version: 6.00 Build 0)  -->
<!DOCTYPE svg PUBLIC "-//W3C//DTD SVG 1.1//EN" "http://www.w3.org/Graphics/SVG/1.1/DTD/svg11.dtd">
<svg version="1.1" id="Capa_1" xmlns="http://www.w3.org/2000/svg" xmlns:xlink="http://www.w3.org/1999/xlink" x="0px" y="0px"
	 width="26.458px" height="33.042px" viewBox="0 0 26.458 33.042" enable-background="new 0 0 26.458 33.042" xml:space="preserve">
<g>
	<path fill="#B58C72" d="M13.234,0.612c-6.706,0-12.318,5.701-12.318,12.511c0,4.119,2.184,6.812,4.991,9.982
		c2.494,2.848,5.146,4.658,7.327,9.568c2.343-4.91,4.995-6.721,7.486-9.568c2.653-3.171,4.993-5.863,4.993-9.982
		C25.713,6.312,20.102,0.612,13.234,0.612L13.234,0.612z"/>
	<path fill="#FFFFFF" d="M13.243,2.082c-5.944,0-10.919,4.991-10.919,10.951c0,3.604,1.936,5.962,4.424,8.736
		c2.211,2.49,4.561,4.076,6.496,8.375c2.075-4.299,4.428-5.885,6.637-8.375c2.353-2.775,4.425-5.132,4.425-8.736
		c0-5.961-4.974-10.951-11.059-10.951H13.243L13.243,2.082z"/>
</g>
<path fill="#945A36" stroke="#945A36" stroke-width="0.4" stroke-miterlimit="10" d="M12.621,22.78V11.009
	c0-0.368,0.311-0.679,0.679-0.679c0.367,0,0.68,0.312,0.68,0.679V22.78H12.621z"/>
<path fill="#945A36" stroke="#945A36" stroke-width="0.6" stroke-miterlimit="10" d="M16.468,22.78V11.009
	c0-0.368,0.312-0.679,0.68-0.679s0.68,0.312,0.68,0.679V22.78H16.468z"/>
<path fill="#945A36" stroke="#945A36" stroke-width="0.6" stroke-miterlimit="10" d="M8.716,22.78V11.009
	c0-0.368,0.311-0.679,0.679-0.679s0.679,0.312,0.679,0.679V22.78H8.716z"/>
<path fill="#945A36" stroke="#945A36" stroke-width="0.6" stroke-miterlimit="10" d="M6.792,8.689
	C6.311,8.717,5.661,9.085,5.661,9.905c0,0.792,0.65,1.188,1.131,1.188v1.386c-1.443,0-2.631-1.16-2.631-2.575
	c0-1.415,1.188-2.574,2.631-2.574h12.873c1.443,0,2.631,1.16,2.631,2.574c0,1.415-1.188,2.575-2.631,2.575v-1.386
	c0.509-0.028,1.132-0.396,1.132-1.188s-0.68-1.16-1.132-1.216H7.812H6.792L6.792,8.689z"/>
</svg>
