<?xml version="1.0" encoding="utf-8"?>
<!-- Generator: Adobe Illustrator 16.0.0, SVG Export Plug-In . SVG Version: 6.00 Build 0)  -->
<!DOCTYPE svg PUBLIC "-//W3C//DTD SVG 1.1//EN" "http://www.w3.org/Graphics/SVG/1.1/DTD/svg11.dtd">
<svg version="1.1" id="Capa_1" xmlns="http://www.w3.org/2000/svg" xmlns:xlink="http://www.w3.org/1999/xlink" x="0px" y="0px"
	 width="26.458px" height="33.042px" viewBox="0 0 26.458 33.042" enable-background="new 0 0 26.458 33.042" xml:space="preserve">
<g>
	<path fill="#DE9B81" d="M13.234,0.612c-6.706,0-12.318,5.701-12.318,12.511c0,4.119,2.184,6.812,4.991,9.982
		c2.494,2.848,5.146,4.658,7.327,9.568c2.343-4.91,4.995-6.721,7.486-9.568c2.653-3.171,4.993-5.863,4.993-9.982
		C25.713,6.312,20.102,0.612,13.234,0.612L13.234,0.612z"/>
	<path fill="#FFFFFF" d="M13.243,2.082c-5.944,0-10.919,4.991-10.919,10.951c0,3.604,1.936,5.962,4.424,8.736
		c2.211,2.49,4.561,4.076,6.496,8.375c2.075-4.299,4.428-5.885,6.637-8.375c2.353-2.775,4.425-5.132,4.425-8.736
		c0-5.961-4.974-10.951-11.059-10.951H13.243L13.243,2.082z"/>
</g>
<g>
	<circle fill="#CC6421" stroke="#CC6421" stroke-width="0.5" stroke-miterlimit="10" cx="13.256" cy="9.407" r="0.708"/>
	<path fill="#CC6421" stroke="#CC6421" stroke-width="0.5" stroke-miterlimit="10" d="M13.262,7.499
		c-0.999,0-1.813,1.032-1.813,2.295c0,1.264,0.813,2.295,1.813,2.295c1,0,1.814-1.031,1.814-2.295
		C15.077,8.531,14.262,7.499,13.262,7.499z M14.392,10.953c-0.131-0.297-0.356-0.544-0.641-0.704
		c-0.066,0.045-0.14,0.081-0.218,0.105h-0.018l-0.098,0.025h-0.025H13.27h-0.123h-0.025l-0.108-0.025h-0.018
		c-0.079-0.025-0.153-0.062-0.221-0.109c-0.285,0.159-0.509,0.407-0.642,0.705c-0.197-0.354-0.299-0.753-0.295-1.159
		c0-1.056,0.641-1.908,1.408-1.908c0.768,0,1.409,0.856,1.409,1.908c0.016,0.405-0.075,0.807-0.262,1.166V10.953z"/>
	<path fill="#CC6421" stroke="#CC6421" stroke-width="0.5" stroke-miterlimit="10" d="M20.223,18.544h-1.961V9.703
		c-0.004-1.806-0.979-3.47-2.553-4.355c-1.651-0.933-3.616-0.848-5.39,0.222C9.022,6.377,8.24,7.802,8.252,9.33v9.214H6.316
		C6,18.568,5.764,18.845,5.789,19.161c0.022,0.28,0.246,0.506,0.527,0.527h13.907c0.316,0.024,0.594-0.211,0.617-0.527
		c0.025-0.315-0.211-0.593-0.526-0.616C20.284,18.542,20.253,18.542,20.223,18.544z M17.512,18.544H9.027V9.33
		c-0.016-1.26,0.624-2.438,1.689-3.109c1.532-0.926,3.214-1.003,4.62-0.211c1.334,0.751,2.16,2.163,2.162,3.693L17.512,18.544z"/>
</g>
</svg>
